HIERARCHY
ROOT Hips
{
  OFFSET 0.000 67.479 0.000
  CHANNELS 6 Xposition Yposition Zposition Zrotation Xrotation Yrotation
  JOINT LeftUpLeg
  {
    OFFSET 7.769 0.446 3.423
    CHANNELS 6 Xposition Yposition Zposition Zrotation Xrotation Yrotation
    JOINT LeftLeg
    {
      OFFSET 0.000 -35.721 0.000
      CHANNELS 6 Xposition Yposition Zposition Zrotation Xrotation Yrotation
      JOINT LeftFoot
      {
        OFFSET 0.000 -32.204 0.000
        CHANNELS 6 Xposition Yposition Zposition Zrotation Xrotation Yrotation
        End Site
        {
          OFFSET 0.000 0.000 9.705
        }
      }
    }
  }
  JOINT RightUpLeg
  {
    OFFSET -7.769 0.446 3.423
    CHANNELS 6 Xposition Yposition Zposition Zrotation Xrotation Yrotation
    JOINT RightLeg
    {
      OFFSET 0.000 -35.721 0.000
      CHANNELS 6 Xposition Yposition Zposition Zrotation Xrotation Yrotation
      JOINT RightFoot
      {
        OFFSET 0.000 -32.204 0.000
        CHANNELS 6 Xposition Yposition Zposition Zrotation Xrotation Yrotation
        End Site
        {
          OFFSET 0.000 0.000 9.705
        }
      }
    }
  }
  JOINT Spine
  {
    OFFSET 0.000 31.903 0.000
    CHANNELS 6 Xposition Yposition Zposition Zrotation Xrotation Yrotation
    JOINT Spine1
    {
      OFFSET 0.000 23.372 0.000
      CHANNELS 6 Xposition Yposition Zposition Zrotation Xrotation Yrotation
      JOINT LeftShoulder
      {
        OFFSET 1.702 -0.472 0.153
        CHANNELS 6 Xposition Yposition Zposition Zrotation Xrotation Yrotation
        JOINT LeftArm
        {
          OFFSET 15.720 0.000 0.000
          CHANNELS 6 Xposition Yposition Zposition Zrotation Xrotation Yrotation
          JOINT LeftForeArm
          {
            OFFSET 28.601 0.000 0.000
            CHANNELS 6 Xposition Yposition Zposition Zrotation Xrotation Yrotation
            JOINT LeftHand
            {
              OFFSET 22.142 0.000 0.000
              CHANNELS 6 Xposition Yposition Zposition Zrotation Xrotation Yrotation
              JOINT LeftHandThumb1
              {
                OFFSET 4.877 -1.044 3.608
                CHANNELS 6 Xposition Yposition Zposition Zrotation Xrotation Yrotation
                JOINT LeftHandThumb2
                {
                  OFFSET 2.665 -0.000 -0.000
                  CHANNELS 6 Xposition Yposition Zposition Zrotation Xrotation Yrotation
                  JOINT LeftHandThumb3
                  {
                    OFFSET 2.543 0.000 -0.000
                    CHANNELS 6 Xposition Yposition Zposition Zrotation Xrotation Yrotation
                    End Site
                    {
                      OFFSET 2.667 0.000 -0.000
                    }
                  }
                }
              }
              JOINT LeftHandIndex1
              {
                OFFSET 9.232 -0.301 2.144
                CHANNELS 6 Xposition Yposition Zposition Zrotation Xrotation Yrotation
                JOINT LeftHandIndex2
                {
                  OFFSET 4.225 -0.000 0.000
                  CHANNELS 6 Xposition Yposition Zposition Zrotation Xrotation Yrotation
                  JOINT LeftHandIndex3
                  {
                    OFFSET 2.654 0.000 -0.000
                    CHANNELS 6 Xposition Yposition Zposition Zrotation Xrotation Yrotation
                    End Site
                    {
                      OFFSET 1.958 -0.000 0.000
                    }
                  }
                }
              }
              JOINT LeftHandMiddle1
              {
                OFFSET 8.920 -0.000 0.000
                CHANNELS 6 Xposition Yposition Zposition Zrotation Xrotation Yrotation
                JOINT LeftHandMiddle2
                {
                  OFFSET 4.863 0.000 0.000
                  CHANNELS 6 Xposition Yposition Zposition Zrotation Xrotation Yrotation
                  JOINT LeftHandMiddle3
                  {
                    OFFSET 2.765 0.000 0.000
                    CHANNELS 6 Xposition Yposition Zposition Zrotation Xrotation Yrotation
                    End Site
                    {
                      OFFSET 2.006 -0.000 0.000
                    }
                  }
                }
              }
              JOINT LeftHandRing1
              {
                OFFSET 8.689 -0.126 -2.087
                CHANNELS 6 Xposition Yposition Zposition Zrotation Xrotation Yrotation
                JOINT LeftHandRing2
                {
                  OFFSET 4.538 0.000 0.000
                  CHANNELS 6 Xposition Yposition Zposition Zrotation Xrotation Yrotation
                  JOINT LeftHandRing3
                  {
                    OFFSET 2.305 0.000 0.000
                    CHANNELS 6 Xposition Yposition Zposition Zrotation Xrotation Yrotation
                    End Site
                    {
                      OFFSET 1.923 -0.000 0.000
                    }
                  }
                }
              }
              JOINT LeftHandPinky1
              {
                OFFSET 8.391 -0.817 -3.758
                CHANNELS 6 Xposition Yposition Zposition Zrotation Xrotation Yrotation
                JOINT LeftHandPinky2
                {
                  OFFSET 3.044 0.000 0.000
                  CHANNELS 6 Xposition Yposition Zposition Zrotation Xrotation Yrotation
                  JOINT LeftHandPinky3
                  {
                    OFFSET 1.975 0.000 0.000
                    CHANNELS 6 Xposition Yposition Zposition Zrotation Xrotation Yrotation
                    End Site
                    {
                      OFFSET 1.667 0.000 -0.000
                    }
                  }
                }
              }
            }
          }
        }
      }
      JOINT RightShoulder
      {
        OFFSET -1.702 -0.472 0.153
        CHANNELS 6 Xposition Yposition Zposition Zrotation Xrotation Yrotation
        JOINT RightArm
        {
          OFFSET -15.720 0.000 0.000
          CHANNELS 6 Xposition Yposition Zposition Zrotation Xrotation Yrotation
          JOINT RightForeArm
          {
            OFFSET -28.601 0.000 0.000
            CHANNELS 6 Xposition Yposition Zposition Zrotation Xrotation Yrotation
            JOINT RightHand
            {
              OFFSET -22.142 0.000 0.000
              CHANNELS 6 Xposition Yposition Zposition Zrotation Xrotation Yrotation
              JOINT RightHandThumb1
              {
                OFFSET -4.877 -1.044 3.608
                CHANNELS 6 Xposition Yposition Zposition Zrotation Xrotation Yrotation
                JOINT RightHandThumb2
                {
                  OFFSET -2.665 0.000 0.000
                  CHANNELS 6 Xposition Yposition Zposition Zrotation Xrotation Yrotation
                  JOINT RightHandThumb3
                  {
                    OFFSET -2.543 0.000 -0.000
                    CHANNELS 6 Xposition Yposition Zposition Zrotation Xrotation Yrotation
                    End Site
                    {
                      OFFSET -2.667 0.000 -0.000
                    }
                  }
                }
              }
              JOINT RightHandIndex1
              {
                OFFSET -9.232 -0.301 2.144
                CHANNELS 6 Xposition Yposition Zposition Zrotation Xrotation Yrotation
                JOINT RightHandIndex2
                {
                  OFFSET -4.225 0.000 0.000
                  CHANNELS 6 Xposition Yposition Zposition Zrotation Xrotation Yrotation
                  JOINT RightHandIndex3
                  {
                    OFFSET -2.654 -0.000 -0.000
                    CHANNELS 6 Xposition Yposition Zposition Zrotation Xrotation Yrotation
                    End Site
                    {
                      OFFSET -1.958 0.000 -0.000
                    }
                  }
                }
              }
              JOINT RightHandMiddle1
              {
                OFFSET -8.920 0.000 0.000
                CHANNELS 6 Xposition Yposition Zposition Zrotation Xrotation Yrotation
                JOINT RightHandMiddle2
                {
                  OFFSET -4.863 -0.000 -0.000
                  CHANNELS 6 Xposition Yposition Zposition Zrotation Xrotation Yrotation
                  JOINT RightHandMiddle3
                  {
                    OFFSET -2.765 -0.000 0.000
                    CHANNELS 6 Xposition Yposition Zposition Zrotation Xrotation Yrotation
                    End Site
                    {
                      OFFSET -2.006 0.000 0.000
                    }
                  }
                }
              }
              JOINT RightHandRing1
              {
                OFFSET -8.689 -0.126 -2.087
                CHANNELS 6 Xposition Yposition Zposition Zrotation Xrotation Yrotation
                JOINT RightHandRing2
                {
                  OFFSET -4.538 0.000 0.000
                  CHANNELS 6 Xposition Yposition Zposition Zrotation Xrotation Yrotation
                  JOINT RightHandRing3
                  {
                    OFFSET -2.305 -0.000 0.000
                    CHANNELS 6 Xposition Yposition Zposition Zrotation Xrotation Yrotation
                    End Site
                    {
                      OFFSET -1.923 -0.000 0.000
                    }
                  }
                }
              }
              JOINT RightHandPinky1
              {
                OFFSET -8.391 -0.817 -3.758
                CHANNELS 6 Xposition Yposition Zposition Zrotation Xrotation Yrotation
                JOINT RightHandPinky2
                {
                  OFFSET -3.044 0.000 -0.000
                  CHANNELS 6 Xposition Yposition Zposition Zrotation Xrotation Yrotation
                  JOINT RightHandPinky3
                  {
                    OFFSET -1.975 -0.000 -0.000
                    CHANNELS 6 Xposition Yposition Zposition Zrotation Xrotation Yrotation
                    End Site
                    {
                      OFFSET -1.667 0.000 0.000
                    }
                  }
                }
              }
            }
          }
        }
      }
      JOINT Neck
      {
        OFFSET 0.000 0.764 0.000
        CHANNELS 6 Xposition Yposition Zposition Zrotation Xrotation Yrotation
        JOINT Head
        {
          OFFSET 0.000 6.943 0.000
          CHANNELS 6 Xposition Yposition Zposition Zrotation Xrotation Yrotation
          End Site
          {
            OFFSET 0.000 15.981 0.000
          }
        }
      }
    }
  }
}
MOTION
Frames:	4
Frame Time:	0.033333
11.58482 71.66409 -232.82117 -20.10405 0.99578 18.48563 6.32421 0.59336 3.22555 20.16663 -24.63009 6.13261 0.03659 -33.49400 -0.00800 8.71205 30.63770 -6.15483 -0.00026 -30.90246 0.02777 0.94513 16.91517 -3.23183 -9.18087 0.33703 3.22835 8.08886 0.25353 -14.10793 -0.08358 -36.93105 0.01424 7.59866 5.19770 -17.15001 0.02666 -30.84269 -0.01177 3.33394 24.29827 -8.08661 0.06540 32.28752 -0.03564 0.15357 1.93494 -1.39915 0.04637 23.83239 -0.01692 0.67947 2.17683 -1.59952 1.73143 -0.74537 0.09785 -23.50709 1.17480 -2.78175 16.69161 -0.02242 -0.00782 -61.17295 10.66841 -15.34190 21.99182 -0.02387 0.05426 0.62765 10.06026 -17.70092 21.71691 0.02559 0.01488 -9.44670 21.91421 -2.00138 4.87700 -1.04400 3.60800 -41.57594 -8.45725 -7.72882 2.66501 -0.00001 -0.00001 -0.00000 -0.00000 5.00000 2.54301 0.00000 -0.00004 0.00001 0.00000 60.00000 9.23200 -0.30100 2.14399 -80.00000 0.00000 0.00000 4.22499 -0.00001 0.00000 -90.00000 -0.00000 0.00001 2.65400 0.00001 -0.00002 -70.00001 -0.00000 -0.00000 8.91998 -0.00001 0.00000 -80.00000 0.00000 0.00000 4.86298 0.00000 0.00001 -90.00000 -0.00000 0.00001 2.76501 0.00001 0.00000 -70.00001 -0.00000 -0.00000 8.68899 -0.12603 -2.08702 -80.00000 0.00000 0.00000 4.53800 0.00000 0.00000 -90.00000 -0.00000 0.00001 2.30500 0.00000 0.00000 -70.00001 -0.00000 -0.00000 8.39099 -0.81700 -3.75800 -80.00000 0.00000 0.00000 3.04400 0.00000 0.00001 -90.00000 -0.00000 0.00001 1.97501 0.00000 0.00000 -70.00001 -0.00000 -0.00000 -1.56749 -0.52012 0.07756 18.91976 1.11076 3.20563 -14.50946 -0.02980 0.03397 51.09950 -7.28325 -1.16051 -28.85781 0.09104 0.00427 18.09738 8.42525 17.04319 -21.97756 0.02246 0.02284 43.54671 28.21015 5.39546 -4.87700 -1.04400 3.60802 40.90540 11.75461 -3.91034 -2.66500 0.00000 0.00000 0.00000 -0.00000 -5.00000 -2.54300 0.00002 -0.00001 0.00000 -0.00000 -60.00000 -9.23199 -0.30099 2.14401 -2.00000 0.00000 0.00000 -4.22502 0.00001 0.00000 -2.00000 -0.00000 -0.00000 -2.65399 -0.00001 -0.00002 -2.00000 0.00000 0.00000 -8.92000 0.00001 0.00004 80.00000 -0.00000 0.00001 -4.86300 -0.00001 -0.00002 90.00000 -0.00000 0.00001 -2.76499 -0.00001 0.00004 70.00000 -0.00000 0.00000 -8.68899 -0.12599 -2.08697 80.00000 -0.00000 0.00001 -4.53799 0.00000 0.00000 90.00000 -0.00000 0.00001 -2.30500 -0.00001 0.00001 70.00000 -0.00000 0.00000 -8.39100 -0.81699 -3.75795 -2.00000 0.00000 0.00000 -3.04401 0.00000 -0.00002 -2.00000 -0.00000 -0.00000 -1.97499 -0.00001 -0.00002 -2.00000 0.00000 0.00000 -0.00000 0.77922 0.00000 0.00000 -0.00005 0.00001 0.07146 7.02604 0.01870 -8.33696 7.53992 -4.53250 
11.86412 71.27108 -232.85689 -20.57902 1.03485 19.53026 6.23399 0.54391 3.20052 19.95108 -25.86851 5.72388 0.03167 -33.52734 -0.00762 9.35847 31.89273 -6.65166 -0.00026 -30.59095 0.02990 0.89172 16.29393 -3.11016 -9.22070 0.40376 3.20290 8.20386 0.29392 -13.96959 -0.08370 -37.23359 0.01276 7.86937 4.68055 -17.84325 0.02599 -30.30159 -0.01076 3.55410 24.45281 -8.56291 0.05595 32.40413 -0.02937 0.26937 1.87843 -1.73359 0.03699 23.89765 -0.01347 0.70511 2.14919 -1.92835 1.73207 -0.75902 0.09738 -23.84279 1.28676 -2.97439 16.79094 -0.01936 -0.00536 -60.42528 10.03938 -15.32810 21.89553 -0.03704 0.04150 -0.89190 10.18467 -17.99122 21.71870 0.02736 0.01781 -8.49449 21.32193 -1.91242 4.87700 -1.04400 3.60800 -41.57594 -8.45725 -7.72882 2.66501 -0.00001 -0.00001 -0.00000 -0.00000 5.00000 2.54301 0.00000 -0.00004 0.00001 0.00000 60.00000 9.23200 -0.30100 2.14399 -80.00000 0.00000 0.00000 4.22499 -0.00001 0.00000 -90.00000 -0.00000 0.00001 2.65400 0.00001 -0.00002 -70.00001 -0.00000 -0.00000 8.91998 -0.00001 0.00000 -80.00000 0.00000 0.00000 4.86298 0.00000 0.00001 -90.00000 -0.00000 0.00001 2.76501 0.00001 0.00000 -70.00001 -0.00000 -0.00000 8.68899 -0.12603 -2.08702 -80.00000 0.00000 0.00000 4.53800 0.00000 0.00000 -90.00000 -0.00000 0.00001 2.30500 0.00000 0.00000 -70.00001 -0.00000 -0.00000 8.39099 -0.81700 -3.75800 -80.00000 0.00000 0.00000 3.04400 0.00000 0.00001 -90.00000 -0.00000 0.00001 1.97501 0.00000 0.00000 -70.00001 -0.00000 -0.00000 -1.53375 -0.51982 0.08578 19.02137 1.22441 3.51245 -14.25862 -0.02867 0.03321 50.73931 -7.06965 -1.26443 -28.93121 0.07705 0.00315 17.87256 8.20536 16.97519 -21.90011 0.01949 0.02063 44.07508 28.57981 4.53457 -4.87700 -1.04400 3.60802 40.90540 11.75461 -3.91034 -2.66500 0.00000 0.00000 0.00000 -0.00000 -5.00000 -2.54300 0.00002 -0.00001 0.00000 -0.00000 -60.00000 -9.23199 -0.30099 2.14401 -2.00000 0.00000 0.00000 -4.22502 0.00001 0.00000 -2.00000 -0.00000 -0.00000 -2.65399 -0.00001 -0.00002 -2.00000 0.00000 0.00000 -8.92000 0.00001 0.00004 80.00000 -0.00000 0.00001 -4.86300 -0.00001 -0.00002 90.00000 -0.00000 0.00001 -2.76499 -0.00001 0.00004 70.00000 -0.00000 0.00000 -8.68899 -0.12599 -2.08697 80.00000 -0.00000 0.00001 -4.53799 0.00000 0.00000 90.00000 -0.00000 0.00001 -2.30500 -0.00001 0.00001 70.00000 -0.00000 0.00000 -8.39100 -0.81699 -3.75795 -2.00000 0.00000 0.00000 -3.04401 0.00000 -0.00002 -2.00000 -0.00000 -0.00000 -1.97499 -0.00001 -0.00002 -2.00000 0.00000 0.00000 -0.00000 0.77945 0.00000 0.00000 -0.00005 0.00001 0.07116 7.04261 0.01886 -11.21602 7.88200 -4.00637 
12.18220 70.88333 -232.89577 -21.69131 1.07789 20.55810 6.12628 0.58125 3.17283 20.41922 -27.30597 5.47332 0.02732 -33.56285 -0.00727 9.77695 33.16537 -7.03638 -0.00026 -30.28614 0.03135 0.79772 15.90800 -2.77659 -9.25947 0.38303 3.17268 8.81407 0.08283 -13.92023 -0.08020 -37.43870 0.01133 8.20732 4.25799 -18.41221 0.02419 -29.87788 -0.00851 3.83219 24.78791 -9.10737 0.05665 32.45399 -0.02964 0.05871 1.97859 -2.00974 0.04331 23.91856 -0.01147 0.63344 2.18532 -2.20300 1.68087 -0.73447 0.09689 -23.92844 1.24939 -2.84786 16.28648 0.02003 0.00698 -58.94445 10.13038 -15.44882 21.81958 -0.04750 0.03525 -1.93420 10.27466 -18.68822 21.71988 0.02749 0.02029 -8.25933 21.01194 -1.58115 4.87700 -1.04400 3.60800 -41.57594 -8.45725 -7.72882 2.66501 -0.00001 -0.00001 -0.00000 -0.00000 5.00000 2.54301 0.00000 -0.00004 0.00001 0.00000 60.00000 9.23200 -0.30100 2.14399 -80.00000 0.00000 0.00000 4.22499 -0.00001 0.00000 -90.00000 -0.00000 0.00001 2.65400 0.00001 -0.00002 -70.00001 -0.00000 -0.00000 8.91998 -0.00001 0.00000 -80.00000 0.00000 0.00000 4.86298 0.00000 0.00001 -90.00000 -0.00000 0.00001 2.76501 0.00001 0.00000 -70.00001 -0.00000 -0.00000 8.68899 -0.12603 -2.08702 -80.00000 0.00000 0.00000 4.53800 0.00000 0.00000 -90.00000 -0.00000 0.00001 2.30500 0.00000 0.00000 -70.00001 -0.00000 -0.00000 8.39099 -0.81700 -3.75800 -80.00000 0.00000 0.00000 3.04400 0.00000 0.00001 -90.00000 -0.00000 0.00001 1.97501 0.00000 0.00000 -70.00001 -0.00000 -0.00000 -1.53647 -0.51954 0.08585 19.48434 1.15542 3.27394 -14.23731 -0.02757 0.03259 50.10448 -6.46576 -1.23908 -28.96369 0.06841 0.01385 19.51707 8.26657 17.12432 -22.84640 0.01030 -0.00651 44.98042 31.10441 2.76544 -4.87700 -1.04400 3.60802 40.90540 11.75461 -3.91034 -2.66500 0.00000 0.00000 0.00000 -0.00000 -5.00000 -2.54300 0.00002 -0.00001 0.00000 -0.00000 -60.00000 -9.23199 -0.30099 2.14401 -2.00000 0.00000 0.00000 -4.22502 0.00001 0.00000 -2.00000 -0.00000 -0.00000 -2.65399 -0.00001 -0.00002 -2.00000 0.00000 0.00000 -8.92000 0.00001 0.00004 80.00000 -0.00000 0.00001 -4.86300 -0.00001 -0.00002 90.00000 -0.00000 0.00001 -2.76499 -0.00001 0.00004 70.00000 -0.00000 0.00000 -8.68899 -0.12599 -2.08697 80.00000 -0.00000 0.00001 -4.53799 0.00000 0.00000 90.00000 -0.00000 0.00001 -2.30500 -0.00001 0.00001 70.00000 -0.00000 0.00000 -8.39100 -0.81699 -3.75795 -2.00000 0.00000 0.00000 -3.04401 0.00000 -0.00002 -2.00000 -0.00000 -0.00000 -1.97499 -0.00001 -0.00002 -2.00000 0.00000 0.00000 -0.00000 0.77966 0.00000 0.00000 -0.00005 0.00001 0.07046 7.04881 0.01945 -9.54041 6.97499 -3.80444 
12.50814 70.50319 -232.93077 -22.67177 1.09179 21.54193 6.03712 0.60066 3.14223 20.77564 -28.73322 5.19774 0.02408 -33.60282 -0.00694 10.12926 34.57303 -7.31573 0.00125 -30.01617 0.03233 0.68794 15.66781 -2.36259 -9.30936 0.37211 3.14125 9.26387 -0.15655 -13.93742 -0.06835 -37.37646 0.00992 8.51190 4.02099 -18.87201 0.02019 -29.72592 -0.00412 4.03382 25.40603 -9.36448 0.05830 32.51621 -0.02833 0.18525 1.94345 -2.34300 0.04260 23.96182 -0.01012 0.68881 2.18075 -2.53320 1.64607 -0.72985 0.09637 -24.26354 1.27359 -2.85027 16.00216 0.02953 0.00718 -58.31266 9.98108 -15.02735 22.83133 -0.06617 0.00298 -2.49179 10.22096 -21.15357 21.71664 0.03808 0.02034 -7.98075 20.83626 0.95062 4.87700 -1.04400 3.60800 -41.57594 -8.45725 -7.72882 2.66501 -0.00001 -0.00001 -0.00000 -0.00000 5.00000 2.54301 0.00000 -0.00004 0.00001 0.00000 60.00000 9.23200 -0.30100 2.14399 -80.00000 0.00000 0.00000 4.22499 -0.00001 0.00000 -90.00000 -0.00000 0.00001 2.65400 0.00001 -0.00002 -70.00001 -0.00000 -0.00000 8.91998 -0.00001 0.00000 -80.00000 0.00000 0.00000 4.86298 0.00000 0.00001 -90.00000 -0.00000 0.00001 2.76501 0.00001 0.00000 -70.00001 -0.00000 -0.00000 8.68899 -0.12603 -2.08702 -80.00000 0.00000 0.00000 4.53800 0.00000 0.00000 -90.00000 -0.00000 0.00001 2.30500 0.00000 0.00000 -70.00001 -0.00000 -0.00000 8.39099 -0.81700 -3.75800 -80.00000 0.00000 0.00000 3.04400 0.00000 0.00001 -90.00000 -0.00000 0.00001 1.97501 0.00000 0.00000 -70.00001 -0.00000 -0.00000 -1.53685 -0.51931 0.08506 19.49658 1.13345 3.21743 -14.21566 -0.02653 0.03210 49.60389 -5.45326 -1.50079 -28.99649 0.06631 0.02421 20.43143 8.51937 17.64265 -23.60862 0.00972 -0.01794 45.69023 32.86272 2.07359 -4.87700 -1.04400 3.60802 40.90540 11.75461 -3.91034 -2.66500 0.00000 0.00000 0.00000 -0.00000 -5.00000 -2.54300 0.00002 -0.00001 0.00000 -0.00000 -60.00000 -9.23199 -0.30099 2.14401 -2.00000 0.00000 0.00000 -4.22502 0.00001 0.00000 -2.00000 -0.00000 -0.00000 -2.65399 -0.00001 -0.00002 -2.00000 0.00000 0.00000 -8.92000 0.00001 0.00004 80.00000 -0.00000 0.00001 -4.86300 -0.00001 -0.00002 90.00000 -0.00000 0.00001 -2.76499 -0.00001 0.00004 70.00000 -0.00000 0.00000 -8.68899 -0.12599 -2.08697 80.00000 -0.00000 0.00001 -4.53799 0.00000 0.00000 90.00000 -0.00000 0.00001 -2.30500 -0.00001 0.00001 70.00000 -0.00000 0.00000 -8.39100 -0.81699 -3.75795 -2.00000 0.00000 0.00000 -3.04401 0.00000 -0.00002 -2.00000 -0.00000 -0.00000 -1.97499 -0.00001 -0.00002 -2.00000 0.00000 0.00000 -0.00000 0.77986 0.00000 0.00000 -0.00005 0.00001 0.06667 7.06066 0.02026 -9.18782 6.55628 -3.20673 
